<svg width="20" height="22" viewBox="0 0 20 22" fill="none" xmlns="http://www.w3.org/2000/svg">
<path d="M19.1862 6.02144H19.1769C19.0616 5.82011 18.8929 5.65462 18.6894 5.54331L10.4394 0.883937C10.2418 0.773071 10.019 0.714844 9.79248 0.714844C9.56593 0.714844 9.34318 0.773071 9.14561 0.883937L0.895607 5.52456C0.708176 5.63089 0.550271 5.78235 0.436232 5.96519L0.408107 6.00269H0.398732C0.2906 6.20133 0.232668 6.42341 0.229982 6.64956V15.8933C0.229675 16.1258 0.291143 16.3543 0.408097 16.5552C0.52505 16.7562 0.693291 16.9225 0.895607 17.0371L9.14561 21.6777C9.32175 21.7747 9.51688 21.8323 9.71748 21.8464H9.87686C10.0742 21.831 10.266 21.7734 10.4394 21.6777L18.6894 17.0371C18.8917 16.9225 19.0599 16.7562 19.1769 16.5552C19.2938 16.3543 19.3553 16.1258 19.355 15.8933V6.66831C19.3582 6.4414 19.2999 6.21786 19.1862 6.02144ZM9.69873 1.85894L9.79248 1.84019L9.88623 1.85894L17.6487 6.22769L14.3956 8.07456L6.44561 3.68706L9.69873 1.85894ZM9.87686 10.6433L1.94561 6.22769L5.29248 4.34331L13.2519 8.73081L9.87686 10.6433ZM1.44873 16.0808C1.42053 16.0625 1.39724 16.0375 1.3809 16.0081C1.36455 15.9787 1.35566 15.9457 1.35498 15.9121V7.18394L9.31436 11.6183L9.23936 20.4589L1.44873 16.0808ZM18.1362 16.0808L10.3644 20.4496L10.4394 11.6183L13.8237 9.69644V13.5871C13.8237 13.7362 13.883 13.8793 13.9885 13.9848C14.094 14.0903 14.237 14.1496 14.3862 14.1496C14.5354 14.1496 14.6785 14.0903 14.784 13.9848C14.8895 13.8793 14.9487 13.7362 14.9487 13.5871V9.05894L18.23 7.19331V15.9121C18.2293 15.9457 18.2204 15.9787 18.2041 16.0081C18.1877 16.0375 18.1644 16.0625 18.1362 16.0808Z" fill="#555555"/>
</svg>
