<svg width="19" height="20" viewBox="0 0 19 20" fill="none" xmlns="http://www.w3.org/2000/svg">
<path d="M17.4873 3.3252H13.5498V2.3877C13.5473 1.84145 13.3292 1.31827 12.943 0.932012C12.5567 0.545752 12.0336 0.327661 11.4873 0.325195H6.9873C6.44106 0.327661 5.91788 0.545752 5.53162 0.932012C5.14536 1.31827 4.92727 1.84145 4.9248 2.3877V3.3252H0.987305C0.83812 3.3252 0.695046 3.38446 0.589557 3.48995C0.484068 3.59544 0.424805 3.73851 0.424805 3.8877C0.424805 4.03688 0.484068 4.17995 0.589557 4.28544C0.695046 4.39093 0.83812 4.4502 0.987305 4.4502H1.9248V18.1377C1.9248 18.4858 2.06309 18.8196 2.30923 19.0658C2.55537 19.3119 2.88921 19.4502 3.2373 19.4502H15.2373C15.5854 19.4502 15.9192 19.3119 16.1654 19.0658C16.4115 18.8196 16.5498 18.4858 16.5498 18.1377V4.4502H17.4873C17.6365 4.4502 17.7796 4.39093 17.8851 4.28544C17.9905 4.17995 18.0498 4.03688 18.0498 3.8877C18.0498 3.73851 17.9905 3.59544 17.8851 3.48995C17.7796 3.38446 17.6365 3.3252 17.4873 3.3252ZM6.0498 2.3877C6.0498 2.13905 6.14858 1.9006 6.32439 1.72478C6.50021 1.54897 6.73866 1.4502 6.9873 1.4502H11.4873C11.7359 1.4502 11.9744 1.54897 12.1502 1.72478C12.326 1.9006 12.4248 2.13905 12.4248 2.3877V3.3252H6.0498V2.3877ZM15.4248 18.1377C15.4248 18.1874 15.4051 18.2351 15.3699 18.2703C15.3347 18.3054 15.287 18.3252 15.2373 18.3252H3.2373C3.18758 18.3252 3.13989 18.3054 3.10472 18.2703C3.06956 18.2351 3.0498 18.1874 3.0498 18.1377V4.4502H15.4248V18.1377ZM7.5498 8.3877V14.3877C7.5498 14.5369 7.49054 14.68 7.38505 14.7854C7.27956 14.8909 7.13649 14.9502 6.9873 14.9502C6.83812 14.9502 6.69505 14.8909 6.58956 14.7854C6.48407 14.68 6.4248 14.5369 6.4248 14.3877V8.3877C6.4248 8.23851 6.48407 8.09544 6.58956 7.98995C6.69505 7.88446 6.83812 7.8252 6.9873 7.8252C7.13649 7.8252 7.27956 7.88446 7.38505 7.98995C7.49054 8.09544 7.5498 8.23851 7.5498 8.3877ZM12.0498 8.3877V14.3877C12.0498 14.5369 11.9905 14.68 11.8851 14.7854C11.7796 14.8909 11.6365 14.9502 11.4873 14.9502C11.3381 14.9502 11.195 14.8909 11.0896 14.7854C10.9841 14.68 10.9248 14.5369 10.9248 14.3877V8.3877C10.9248 8.23851 10.9841 8.09544 11.0896 7.98995C11.195 7.88446 11.3381 7.8252 11.4873 7.8252C11.6365 7.8252 11.7796 7.88446 11.8851 7.98995C11.9905 8.09544 12.0498 8.23851 12.0498 8.3877Z" fill="#555555"/>
</svg>
