<?xml version="1.0" encoding="utf-8"?>
<!-- Generator: Adobe Illustrator 24.0.2, SVG Export Plug-In . SVG Version: 6.00 Build 0)  -->
<svg version="1.0" id="Layer_1" xmlns="http://www.w3.org/2000/svg" xmlns:xlink="http://www.w3.org/1999/xlink" x="0px" y="0px"
	 viewBox="0 0 144 144" style="enable-background:new 0 0 144 144;" xml:space="preserve">
<style type="text/css">
	.st0{fill:#FF8500;}
	.st1{fill:#FFFFFF;}
</style>
<g>
	<circle class="st0" cx="72" cy="72" r="71.5"/>
	<g>
		<g>
			<g>
				<g>
					<path class="st1" d="M9.4,70.3l13.9-8c2-1.2,4.6-1.2,6.6,0l37,21.9L53.3,92c-2,1.2-4.5,1.1-6.5,0L9.4,70.3z"/>
				</g>
				<g>
					<path class="st1" d="M70.3,85.6V129l-37.2-20.5c-2.1-1.2-3.4-3.4-3.4-5.7V85.4l16.9,10.2c2.1,1.3,4.7,1.3,6.7,0L70.3,85.6z"/>
				</g>
				<g>
					<path class="st1" d="M134.6,70.3l-13.9-8c-2-1.2-4.6-1.2-6.6,0l-37,21.9L90.7,92c2,1.2,4.5,1.1,6.5,0L134.6,70.3z"/>
				</g>
				<g>
					<path class="st1" d="M73.7,85.6V129l37.2-20.5c2.1-1.2,3.4-3.4,3.4-5.7V85.4L97.3,95.6c-2.1,1.3-4.7,1.3-6.7,0L73.7,85.6z"/>
				</g>
			</g>
			<g>
				<g>
					<path class="st1" d="M92.3,71.4l24.9-14.5c-0.9-11.9-6.4-22.5-14.6-30c-9.6,0.4-24.4,4.1-35.7,10.9c1.5-0.3,3.6-0.5,5.1-0.5
						c12.7,0,23,10.3,23,23c0,2.6-0.4,5.1-1.2,7.4C93.4,69,92.9,70.2,92.3,71.4z"/>
				</g>
				<g>
					<path class="st1" d="M49,60.3c0-1.6,0.2-3.2,0.5-4.7c0.9-4.4,3.2-9.2,6.8-13.1c10.7-11.4,30.2-17,43.2-18.3
						C91.9,18.5,82.4,15,72,15C48.1,15,28.5,33.5,26.8,57l25.1,14.5C50.1,68.2,49,64.4,49,60.3z"/>
				</g>
			</g>
		</g>
	</g>
</g>
</svg>
