<svg width="25" height="25" viewBox="0 0 25 25" fill="none" xmlns="http://www.w3.org/2000/svg">
<g clip-path="url(#clip0_1781_1735)">
<path d="M24.2615 4.69375C24.5496 4.69375 24.7832 4.46203 24.7832 4.17629V2.10633C24.7832 1.82059 24.5496 1.58887 24.2615 1.58887H1.30492C1.01683 1.58882 0.783203 1.82059 0.783203 2.10633V4.17629C0.783203 4.46203 1.01683 4.69375 1.30492 4.69375H3.13103V6.76371H1.30492C1.01683 6.76371 0.783203 6.99543 0.783203 7.28118V11.421C0.783203 11.7068 1.01683 11.9385 1.30492 11.9385H3.13103V14.0085H1.30492C1.01683 14.0085 0.783203 14.2402 0.783203 14.5259V18.6658C0.783203 18.9515 1.01683 19.1833 1.30492 19.1833H3.13103V21.2532H1.30492C1.01683 21.2532 0.783203 21.4849 0.783203 21.7707V23.8406C0.783203 24.1264 1.01683 24.3581 1.30492 24.3581H24.2615C24.5496 24.3581 24.7832 24.1264 24.7832 23.8406V21.7707C24.7832 21.4849 24.5496 21.2532 24.2615 21.2532H22.4354V19.1833H24.2615C24.5496 19.1833 24.7832 18.9515 24.7832 18.6658V14.5259C24.7832 14.2402 24.5496 14.0085 24.2615 14.0085H22.4354V11.9385H24.2615C24.5496 11.9385 24.7832 11.7068 24.7832 11.421V7.28118C24.7832 6.99543 24.5496 6.76371 24.2615 6.76371H22.4354V4.69375H24.2615ZM23.7397 22.2883V23.3233H1.82669V22.2883H23.7397ZM4.17452 21.2533V19.1833H5.73972V21.2533H4.17452ZM6.7832 21.2533V19.1833H10.9571V21.2533H6.7832ZM12.0006 21.2533V19.1833H13.5658V21.2533H12.0006ZM14.6093 21.2533V19.1833H18.7832V21.2533H14.6093ZM19.8267 21.2533V19.1833H21.3919V21.2533H19.8267ZM23.7397 18.1484H1.82669V17.1134H23.7397V18.1484ZM23.7397 15.0435V16.0785H1.82669V15.0435H23.7397ZM4.17452 14.0085V11.9386H5.73972V14.0085H4.17452ZM6.7832 14.0085V11.9386H10.9571V14.0085H6.7832ZM12.0006 14.0085V11.9386H13.5658V14.0085H12.0006ZM14.6093 14.0085V11.9386H18.7832V14.0085H14.6093ZM19.8267 14.0085V11.9386H21.3919V14.0085H19.8267ZM23.7397 10.9036H1.82669V9.8686H23.7397V10.9036ZM23.7397 7.79869V8.83366H1.82669V7.79869H23.7397ZM4.17452 6.76371V4.69375H5.73972V6.76371H4.17452ZM6.7832 6.76371V4.69375H10.9571V6.76371H6.7832ZM12.0006 6.76371V4.69375H13.5658V6.76371H12.0006ZM14.6093 6.76371V4.69375H18.7832V6.76371H14.6093ZM19.8267 6.76371V4.69375H21.3919V6.76371H19.8267ZM1.82669 3.65878V2.6238H23.7397V3.65878H1.82669Z" fill="black"/>
</g>
<defs>
<clipPath id="clip0_1781_1735">
<rect width="24" height="24" fill="white" transform="translate(0.693359 0.160156)"/>
</clipPath>
</defs>
</svg>
